<?xml version="1.0" encoding="UTF-8" standalone="no"?><!DOCTYPE svg PUBLIC "-//W3C//DTD SVG 1.1//EN" "http://www.w3.org/Graphics/SVG/1.1/DTD/svg11.dtd"><svg width="100%" height="100%" viewBox="0 0 559 546" version="1.1" xmlns="http://www.w3.org/2000/svg" xmlns:xlink="http://www.w3.org/1999/xlink" xml:space="preserve" xmlns:serif="http://www.serif.com/" style="fill-rule:evenodd;clip-rule:evenodd;stroke-linejoin:round;stroke-miterlimit:2;"><g><path d="M541.883,99.604c-2.675,2.667 -5.146,5.054 -7.533,7.517c-12.763,13.15 -20.133,29.287 -25.925,46.379c-8.604,25.4 -7.875,50.929 -1.842,76.663c4.342,18.521 11.492,36.021 18.5,53.638c7.321,18.396 13.396,37.229 15.975,57.058c4.65,35.65 -1.842,69.258 -17.646,101.283c-4.908,9.954 -12.475,17.85 -20.533,25.2c-25.187,22.979 -54.963,35.379 -88.867,38.575c-16.108,1.521 -32.163,0.908 -48.271,0.933c-27.508,0.042 -53.712,6.138 -77.104,21.208c-6.146,3.958 -11.304,4.342 -17.508,1.071c-5.767,-3.042 -11.888,-5.404 -17.733,-8.308c-19.4,-9.646 -40.475,-11.804 -61.558,-13.258c-12.129,-0.833 -24.392,0.412 -36.575,0.079c-37.567,-1.029 -71.4,-11.992 -100.004,-37.4c-13.067,-11.604 -24.029,-24.596 -31.558,-40.375c-5.096,-10.683 -8.342,-21.967 -10.263,-33.621c-6.729,-40.925 0.85,-79.683 17.613,-117.113c9.729,-21.717 18,-43.933 21.217,-67.708c4.121,-30.446 0.55,-59.517 -15.362,-86.437c-4.596,-7.771 -10.267,-14.579 -16.788,-20.754c-1.533,-1.45 -2.958,-3.017 -4.658,-4.762c1.437,-1.754 2.396,-3.187 3.608,-4.367c13.746,-13.367 27.488,-26.742 41.321,-40.021c9.429,-9.046 19.063,-17.883 28.467,-26.954c2.887,-2.779 5.517,-3.383 9.321,-1.675c14.521,6.521 29.433,12.063 44.904,15.904c22.179,5.512 44.633,7.917 67.408,4.554c23.021,-3.396 44.379,-10.842 62.313,-26.363c4.283,-3.708 4.867,-3.721 9.475,0.012c21.083,17.092 45.675,25.021 72.279,27.217c36.225,2.992 70.567,-4.733 103.583,-19.283c1,-0.442 2.05,-0.796 2.975,-1.358c3.163,-1.938 5.633,-1.008 8.142,1.421c8.767,8.496 17.721,16.8 26.487,25.292c14.25,13.8 28.421,27.683 42.596,41.562c1.2,1.175 2.187,2.571 3.546,4.192Z" style="fill:#ae1d32;fill-rule:nonzero;"/><path d="M461.112,27.138l4.683,-0.808l67.413,64.062l13.737,12.65l-15.337,16.162l-15.487,31.538l-349.221,359.7l-43.904,-1.333l-72.646,-36.096l-26.292,-36.333l377.517,-388.85l30.5,-7.604l29.038,-13.087Z" style="fill:#fae832;fill-rule:nonzero;"/><path d="M539.279,101.313c-1.346,-1.604 -2.325,-2.988 -3.513,-4.15c-14.033,-13.742 -28.063,-27.488 -42.171,-41.15c-8.683,-8.408 -17.546,-16.633 -26.225,-25.042c-2.488,-2.408 -4.929,-3.325 -8.062,-1.408c-0.917,0.558 -1.958,0.908 -2.946,1.346c-32.688,14.408 -66.692,22.054 -102.558,19.092c-26.342,-2.175 -50.688,-10.025 -71.563,-26.946c-4.563,-3.696 -5.142,-3.683 -9.383,-0.012c-17.754,15.367 -38.9,22.738 -61.692,26.1c-22.55,3.329 -44.783,0.95 -66.746,-4.508c-15.312,-3.804 -30.079,-9.292 -44.454,-15.746c-3.771,-1.692 -6.371,-1.096 -9.229,1.658c-9.313,8.983 -18.85,17.729 -28.188,26.687c-13.696,13.146 -27.3,26.388 -40.913,39.625c-1.2,1.167 -2.15,2.583 -3.571,4.321c1.683,1.729 3.092,3.283 4.612,4.721c6.458,6.108 12.071,12.85 16.621,20.546c15.754,26.654 19.287,55.433 15.208,85.583c-3.183,23.538 -11.371,45.533 -21.004,67.037c-16.6,37.054 -24.1,75.433 -17.438,115.95c1.9,11.542 5.113,22.712 10.158,33.287c7.458,15.625 18.312,28.487 31.246,39.975c28.321,25.158 61.821,36.013 99.012,37.033c12.067,0.329 24.204,-0.908 36.217,-0.079c20.875,1.438 41.742,3.575 60.95,13.125c5.783,2.875 11.846,5.217 17.558,8.225c6.142,3.237 11.246,2.862 17.329,-1.058c23.162,-14.925 49.108,-20.958 76.346,-21c15.946,-0.025 31.842,0.583 47.792,-0.921c33.567,-3.167 63.05,-15.446 87.987,-38.196c7.979,-7.279 15.467,-15.096 20.329,-24.946c15.65,-31.708 22.075,-64.988 17.471,-100.283c-2.554,-19.633 -8.571,-38.279 -15.817,-56.496c-6.938,-17.442 -14.021,-34.767 -18.317,-53.104c-5.975,-25.479 -6.696,-50.754 1.825,-75.904c5.733,-16.925 13.029,-32.9 25.671,-45.921c2.363,-2.437 4.808,-4.8 7.454,-7.442Zm-539.279,0.396c3.104,-3.358 5.575,-6.275 8.3,-8.929c10.204,-9.917 20.471,-19.771 30.763,-29.596c8.721,-8.325 17.533,-16.554 26.271,-24.858c6.571,-6.242 13.112,-12.508 19.629,-18.808c7.725,-7.467 7.654,-7.371 17.208,-3.25c14.654,6.325 29.363,12.55 45.05,15.95c27.621,5.992 55.275,6.912 82.608,-1.15c16.258,-4.8 31.433,-12.029 43.379,-24.683c1.296,-1.367 2.8,-2.533 4.35,-3.921c5.221,4.058 9.938,8.158 15.075,11.637c17.112,11.583 36.254,17.575 56.55,20.9c25.812,4.229 50.75,0.829 75.237,-7.213c11.654,-3.829 23.104,-8.317 34.492,-12.883c4.075,-1.633 6.775,-1.746 10.267,1.642c25.113,24.325 50.513,48.363 75.758,72.554c3.858,3.696 7.396,7.721 11.546,12.083c-1.433,1.808 -2.813,3.633 -4.283,5.392c-5.95,7.108 -12.208,13.975 -17.842,21.329c-11.8,15.425 -16.363,33.538 -18.483,52.425c-2.233,19.879 1.413,39.083 6.817,58.1c4.067,14.308 8.417,28.442 14.263,42.217c7.75,18.275 12.796,37.458 15.796,57.2c2.683,17.65 3.221,35.308 0.533,52.829c-4.504,29.4 -15.587,56.083 -36.396,77.925c-13.183,13.842 -28.308,25.362 -45.467,33.896c-14.017,6.971 -29.108,10.521 -44.55,12.896c-16.933,2.608 -33.908,2.179 -50.95,2.371c-21.704,0.246 -43.854,-0.288 -64.179,9.408c-9.108,4.346 -17.675,9.829 -26.45,14.871c-1.838,1.054 -3.492,2.429 -5.425,3.792c-11.271,-7.533 -23.187,-13.5 -35.7,-18.379c-17.521,-6.833 -35.696,-9.904 -54.404,-10.125c-13.137,-0.154 -26.312,0.546 -39.412,-0.183c-21.625,-1.204 -42.962,-4.812 -63.079,-13.079c-14.429,-5.929 -26.975,-15.175 -39.242,-24.854c-13.588,-10.725 -22.813,-24.721 -30.571,-39.612c-7.688,-14.746 -12.446,-30.683 -14.85,-47.275c-3.958,-27.367 -1.604,-54.275 6.217,-80.621c4.529,-15.275 9.937,-30.321 15.654,-45.2c6.975,-18.167 13.9,-36.321 15.9,-55.817c2.475,-24.167 0.575,-47.817 -9.592,-70.338c-5.712,-12.642 -14.687,-22.742 -24.387,-32.333c-1.821,-1.8 -3.65,-3.596 -6.4,-6.308Z" style="fill:#231f20;fill-rule:nonzero;"/><path d="M167.154,194.5c-0.779,-3.496 -1.704,-6.962 -2.304,-10.483c-1.429,-8.433 -5.529,-16.333 -4.325,-25.333c0.85,-6.317 1.388,-9.087 5.7,-15.15c4.617,2.833 7.254,7.025 8.696,12.108c1.692,5.958 1.537,11.979 0.038,17.888c-1.779,7.017 -3.946,13.937 -5.942,20.896c-0.621,0.025 -1.242,0.05 -1.862,0.075Z" style="fill:#fae832;fill-rule:nonzero;"/><path d="M189.283,191.65c1.946,-1.667 3.175,-2.517 4.158,-3.592c2.258,-2.471 1.575,-4.796 -1.612,-5.821c-4.154,-1.333 -9.696,0.921 -12.896,5.329c-0.883,1.213 -1.558,2.575 -2.375,3.833c-0.654,1.004 -1.379,1.963 -2.771,3.933c-0.163,-2.4 -0.537,-3.6 -0.271,-4.633c2.042,-7.808 5.904,-14.283 13.65,-17.7c4.725,-2.087 9.504,-2.492 14.358,-0.337c3.896,1.729 6.175,4.6 6.279,8.925c0.104,4.388 -1.475,8.142 -5.408,10.275c-3.904,2.121 -8.063,2.238 -13.112,-0.212Z" style="fill:#fae832;fill-rule:nonzero;"/><path d="M161.471,194.888c-4.112,-6.279 -8.337,-12.413 -16.846,-11.583c-1.879,0.179 -3.683,1.167 -6.483,2.104c3,2.842 5.037,4.775 7.075,6.704c-0.096,0.433 -0.196,0.867 -0.296,1.296c-3.062,0.012 -6.158,0.3 -9.183,-0.033c-4.133,-0.454 -6.762,-3.313 -7.683,-7.608c-1,-4.688 0.346,-8.287 4.112,-10.629c4.796,-2.979 9.933,-2.908 14.854,-0.708c8.167,3.658 12.813,10.45 15.392,18.796c0.079,0.258 -0.367,0.675 -0.942,1.663Z" style="fill:#fae832;fill-rule:nonzero;"/><path d="M168.917,206.425c0.671,2.629 1.171,4.942 1.858,7.192c0.608,1.979 1.433,3.892 2.496,6.738c-3.704,-0.088 -6.6,-0.158 -9.854,-0.237c0.104,-4.3 4.037,-7.671 1.708,-12.425c-2.204,1.912 -4.167,3.621 -7.075,6.142c2.183,-7.708 2.604,-7.963 10.867,-7.408Z" style="fill:#fae832;fill-rule:nonzero;"/><path d="M178.9,202.433c-6.958,0.563 -13.925,1.529 -21.488,-0.583c0.696,-1.412 1.013,-2.713 1.392,-2.733c5.937,-0.3 11.888,-0.533 17.829,-0.517c0.925,0.004 1.85,1.304 2.771,2.004c-0.167,0.613 -0.337,1.221 -0.504,1.829Z" style="fill:#fae832;fill-rule:nonzero;"/><path d="M174.608,206.004c1.613,1.767 3.225,3.537 5,5.483c-4.921,1.329 -5.604,0.712 -5,-5.483Z" style="fill:#fae832;fill-rule:nonzero;"/><path d="M220.504,78.292c8.133,6.267 10.996,14.258 10.146,23.542c-0.483,5.317 -1.917,10.55 -3,15.804c-0.608,2.95 -1.283,5.888 -2.108,8.779c-0.367,1.283 -1.171,2.442 -1.775,3.658c-0.733,-0.375 -1.067,-0.442 -1.096,-0.575c-2.596,-11.446 -7.875,-22.263 -7.842,-34.338c0.017,-6.042 1.629,-11.421 5.675,-16.871Z" style="fill:#fae832;fill-rule:nonzero;"/><path d="M243.467,127.075c2.308,-2.113 3.546,-2.888 4.275,-4c0.85,-1.292 2.071,-3.204 1.65,-4.242c-0.492,-1.204 -2.583,-2.425 -4.004,-2.458c-5.171,-0.108 -8.963,2.675 -11.758,6.837c-1.379,2.05 -2.558,4.237 -5.046,6.029c-0.075,-1.1 -0.429,-2.262 -0.179,-3.279c2.3,-9.433 7.867,-16.288 17.046,-19.513c2.804,-0.983 6.437,-0.662 9.417,0.117c5.846,1.529 8.558,5.746 7.938,10.95c-0.617,5.204 -4.958,9.512 -10.333,9.921c-2.446,0.187 -4.933,-0.175 -9.004,-0.362Z" style="fill:#fae832;fill-rule:nonzero;"/><path d="M217.654,129.833c-5.237,-5.525 -10.083,-11.075 -18.296,-10.921c-1.704,0.033 -3.392,1.033 -6.183,1.95c3.129,2.871 5.304,4.867 7.475,6.862c-0.146,0.496 -0.292,0.992 -0.437,1.492c-3.279,0.05 -6.629,0.567 -9.817,0.054c-5.142,-0.833 -7.958,-4.783 -8.092,-10.238c-0.121,-4.825 2.713,-8.396 7.75,-9.758c5.783,-1.562 11.058,-0.487 16.025,2.821c6.358,4.233 9.646,10.429 11.575,17.738Z" style="fill:#fae832;fill-rule:nonzero;"/><path d="M229.588,154.987c-3.704,0.088 -6.817,0.163 -10.429,0.246c0.833,-4.108 1.562,-7.687 2.292,-11.267c-0.392,-0.179 -0.783,-0.358 -1.171,-0.538c-1.758,1.763 -3.521,3.525 -5.475,5.483c-2.758,-3.487 0.254,-4.913 1.25,-6.642c1.862,-3.242 5.067,-0.9 8.142,-1.646c1.712,4.558 3.4,9.058 5.392,14.362Z" style="fill:#fae832;fill-rule:nonzero;"/><path d="M211.904,135.904c3.096,-2.471 14.346,-4.071 19.9,-3.058c1.758,0.321 3.396,0.858 3.025,3.208c-5.829,2.8 -17.654,2.871 -22.925,-0.15Z" style="fill:#fae832;fill-rule:nonzero;"/><path d="M229.35,139.896c2.317,2.267 4.129,4.042 6.158,6.029c-5.212,1.758 -6.633,0.471 -6.158,-6.029Z" style="fill:#fae832;fill-rule:nonzero;"/><path d="M113.788,131.946c-1.446,-1.967 -2.033,-2.425 -2.162,-2.988c-2.013,-8.804 -4.267,-17.571 -5.854,-26.458c-1.479,-8.304 0.033,-16.162 5.783,-23.383c6.087,3.6 8.658,9.121 9.471,15.367c0.55,4.212 0.663,8.725 -0.246,12.829c-1.746,7.875 -4.358,15.554 -6.992,24.633Z" style="fill:#fae833;fill-rule:nonzero;"/><path d="M134.608,127.708c1.996,-1.825 3.383,-2.771 4.312,-4.05c0.663,-0.917 1.233,-2.488 0.879,-3.383c-0.371,-0.937 -1.858,-1.929 -2.925,-2.008c-5.546,-0.417 -10.137,1.554 -13.346,6.237c-1.3,1.892 -2.454,3.879 -3.85,6.096c-0.804,-0.85 -1.608,-1.337 -1.558,-1.7c2.062,-13.892 12.017,-22.167 23.837,-21.583c4.808,0.233 8.746,2.308 10.596,7.104c1.633,4.225 0.35,9.254 -3.208,12.342c-4.112,3.567 -8.733,2.846 -14.737,0.946Z" style="fill:#fae833;fill-rule:nonzero;"/><path d="M106.746,130.708c-9.742,-12.604 -16.612,-15.225 -22.4,-8.7c1.917,1.779 3.837,3.567 6.683,6.208c-4.808,1.337 -8.475,1.671 -12.112,0.271c-3.979,-1.537 -6.092,-4.5 -6.183,-8.912c-0.087,-4.304 1.458,-7.487 5.479,-9.333c5.517,-2.538 10.796,-2.133 16.013,0.946c6.654,3.925 10.471,9.992 13.112,16.971c0.171,0.45 -0.237,1.117 -0.592,2.55Z" style="fill:#fae833;fill-rule:nonzero;"/><path d="M106.483,141.196c2.658,0.083 4.738,0.146 7.033,0.217c1.533,4.433 3.046,8.792 4.663,13.475c-3.288,1.975 -6.417,1.321 -9.696,0.404c-0.375,-4.154 3.617,-7.546 1.808,-11.458c-3.987,-0.612 -3.129,6.858 -8.646,3.767c1.733,-2.296 3.208,-4.242 4.837,-6.404Z" style="fill:#fae833;fill-rule:nonzero;"/><path d="M124.125,138.625c-6.321,-0.108 -12.229,-0.158 -18.133,-0.358c-0.967,-0.033 -2,-0.579 -2.833,-1.137c-0.392,-0.263 -0.383,-1.121 -0.738,-2.342c1.663,-0.45 3.188,-1.179 4.738,-1.229c4.254,-0.129 8.517,-0.054 12.771,0.108c2.121,0.079 4.362,0.371 4.196,4.958Z" style="fill:#fae833;fill-rule:nonzero;"/><path d="M119.55,141.308c1.779,1.85 3.554,3.7 5.471,5.692c-4.575,2.021 -5.892,0.887 -5.471,-5.692Z" style="fill:#fae833;fill-rule:nonzero;"/><path d="M133.233,425.317c-2.025,4.675 -5.767,8.842 -7.4,10.517c-4.592,4.713 -11.175,8.117 -18.229,8.208c-6.683,0.142 -13.35,-2.767 -18.442,-7.725c-5.579,-5.433 -8.288,-12.192 -8.425,-18.758c-0.067,-5.025 1.229,-12.208 7.821,-18.975c2.642,-2.713 6.029,-5.325 9.796,-7.242l14.129,13.021c-2.996,0.042 -7.796,0.85 -11.012,4.154c-2.004,2.058 -3.042,4.746 -2.9,7.417c0.142,2.567 1.404,5.058 3.3,6.904c1.95,1.9 4.533,3.042 7.258,2.95c2.083,-0.079 4.746,-0.754 7.279,-3.354c3.588,-3.683 3.846,-8.392 3.713,-10.633l13.112,13.517Z" style="fill-rule:nonzero;"/><path d="M146.296,410.492c0.042,2.787 -1.421,5.583 -3.267,7.479c-1.796,1.837 -4.554,3.375 -7.333,3.408c-2.142,0.029 -4.288,-0.908 -5.646,-2.229c-1.3,-1.263 -2.287,-3.383 -2.317,-5.525c-0.038,-2.779 1.425,-5.579 3.217,-7.417c1.846,-1.896 4.608,-3.429 7.388,-3.467c2.138,-0.029 4.287,0.904 5.587,2.171c1.354,1.321 2.346,3.446 2.371,5.579Z" style="fill-rule:nonzero;"/><path d="M153.696,383.504l0.95,-0.971c1.479,-1.521 3.588,-3.792 3.754,-7.217c0.133,-2.3 -0.867,-4.963 -3.142,-7.175c-2.329,-2.271 -5.171,-3.246 -7.471,-3.162c-2.992,0.146 -5.267,1.938 -6.746,3.454l-1.371,1.408l14.025,13.662Zm-1.613,23.762l-36.121,-35.187l13.558,-13.917c2.954,-3.033 10.712,-10.462 21.033,-10.65c4.596,-0.062 11.138,1.35 17.8,7.842c3.733,3.638 7.871,9.037 7.971,16.842c0.108,4.325 -1.138,11.35 -7.517,17.9l-16.725,17.171Z" style="fill-rule:nonzero;"/><path d="M195.358,360.179c0.037,2.783 -1.421,5.583 -3.267,7.479c-1.796,1.842 -4.558,3.375 -7.338,3.408c-2.138,0.029 -4.287,-0.904 -5.642,-2.225c-1.3,-1.267 -2.292,-3.392 -2.321,-5.529c-0.033,-2.779 1.425,-5.575 3.221,-7.417c1.846,-1.896 4.604,-3.433 7.383,-3.467c2.142,-0.029 4.292,0.904 5.592,2.167c1.35,1.321 2.342,3.45 2.371,5.583Z" style="fill-rule:nonzero;"/><path d="M216.075,341.575l-36.121,-35.187l23.738,-24.371l9.912,9.654l-10.975,11.267l3.358,3.271l9.971,-10.238l9.475,9.233l-9.967,10.238l3.462,3.375l11.292,-11.592l9.908,9.654l-24.054,24.696Z" style="fill-rule:nonzero;"/><path d="M243.558,264.175c-2.612,0.513 -7.037,1.8 -9.887,4.725c-0.683,0.7 -1.629,1.896 -1.775,3.125c-0.096,0.854 0.129,1.388 0.671,1.912c0.758,0.742 1.567,1.321 3.95,-0.263l4.983,-3.275c3.817,-2.508 6.963,-3.138 9.1,-3.167c4.437,-0.108 7.675,2.096 9.838,4.2c3.092,3.008 5.167,6.617 5.342,11.533c0.104,4.117 -1.204,10.442 -7.796,17.213c-5.383,5.525 -10.537,7.679 -14.792,9.55l-1.65,0.717l-6.329,-13.871l2.454,-0.354c2.35,-0.35 6.662,-1.533 9.775,-4.725c1.742,-1.788 2.046,-2.967 2.096,-3.45c0.092,-1.067 -0.396,-1.758 -0.937,-2.287c-0.329,-0.317 -0.921,-0.787 -1.671,-0.779c-0.854,0.012 -1.704,0.558 -3.292,1.646l-3.708,2.617c-2.383,1.692 -5.2,3.275 -9.208,3.275c-3.688,-0.004 -6.592,-1.354 -9.192,-3.892c-3.358,-3.271 -5.121,-7.204 -5.179,-11.904c-0.129,-5.504 1.988,-11.363 7.579,-17.104c2.796,-2.871 6.921,-6.129 13.85,-7.933l5.779,12.492Z" style="fill-rule:nonzero;"/><path d="M270.683,245.533l2.167,-2.221c0.629,-0.65 1.896,-2.058 1.871,-3.875c0.046,-0.908 -0.292,-1.975 -1.375,-3.033c-1.137,-1.104 -2.317,-1.304 -3.171,-1.183c-1.067,0.121 -2.446,0.887 -3.396,1.862l-2.321,2.383l6.225,6.067Zm7.538,32.246l-36.121,-35.187l16.879,-17.329c5.592,-5.742 11.138,-6.775 14.075,-6.867c5.829,-0.129 10.196,2.75 13.067,5.546c2.979,2.9 5.758,6.879 5.562,12.387c-0.196,5.4 -3.037,8.967 -5.725,11.729l-6.175,6.338l10.887,10.604l-12.45,12.779Z" style="fill-rule:nonzero;"/><path d="M302.817,204.425l-0.475,0.483c1.463,1.533 2.496,2.967 3.479,4.554l5.192,8.537l5.117,-5.25l-8.567,-5.071c-1.725,-1.05 -3.292,-2.154 -4.746,-3.254Zm14.379,24.35l3.546,5.354l-13.504,13.862l-23.938,-47.696l14.138,-14.513l48.679,22.296l-13.558,13.917l-5.658,-3.183l-9.704,9.962Z" style="fill-rule:nonzero;"/><path d="M324.063,148.917c-0.8,0.383 -1.704,0.663 -2.392,1.367c-0.475,0.487 -0.787,1.025 -0.775,1.775c0.008,0.746 0.292,2.083 0.571,2.879l-7.142,1.7c-0.904,-3.733 -0.358,-6.679 -0.254,-7.217c0.4,-2.142 1.179,-3.596 2.604,-5.058c1.213,-1.246 2.171,-1.688 3.608,-2.188l1.863,-0.613c1.121,-0.387 2.075,-0.617 2.867,-1.429c0.425,-0.433 0.738,-0.863 0.729,-1.608c0.05,-0.379 -0.075,-1.767 -0.192,-2.192l-0.221,-0.958l7.075,-2.504c0.5,1.546 0.796,3.417 0.871,5.175c0.092,2.837 -0.521,5.088 -2.579,7.2c-1.158,1.192 -2.171,1.687 -3.446,2.238l-3.187,1.433Zm25.587,55.533l-36.121,-35.187l12.183,-12.508l21.825,4.9c3.488,0.758 5.738,1.263 9.713,2.813l0.371,-0.379c-2.8,-1.675 -7.012,-4.612 -9.663,-7.196l-11.479,-11.183l12.238,-12.567l36.121,35.187l-12.237,12.562l-23.004,-4.883c-2.087,-0.454 -4.933,-1.325 -7.137,-2.1l-0.367,0.379c2.317,1.521 5.829,4.096 7.45,5.675l12.296,11.979l-12.188,12.508Z" style="fill-rule:nonzero;"/><path d="M381.804,124.529c0.087,2.617 1.458,5.433 3.408,7.329c2.063,2.008 4.8,3.204 7.371,3.171c2.133,-0.029 4.479,-0.917 6.429,-2.921c1.954,-2.004 2.775,-4.367 2.746,-6.504c-0.029,-2.354 -1.083,-5.067 -3.354,-7.283c-2.275,-2.213 -4.908,-3.304 -7.421,-3.217c-1.925,0.025 -4.321,0.75 -6.433,2.917c-2.267,2.329 -2.825,4.746 -2.746,6.508Zm37.671,-1.725c0.133,6.146 -2.121,13.767 -8.821,20.646c-6.7,6.879 -14.258,9.329 -20.404,9.358c-5.617,0.021 -12.221,-2.088 -18.013,-7.729c-5.742,-5.596 -8.021,-12.142 -8.146,-17.754c-0.133,-6.142 2.117,-13.767 8.817,-20.642c6.7,-6.879 14.262,-9.329 20.408,-9.358c5.612,-0.021 12.217,2.083 17.958,7.675c5.796,5.642 8.075,12.192 8.2,17.804Z" style="fill-rule:nonzero;"/><path d="M434.85,116.988l-36.121,-35.183l12.767,-13.108l24.479,23.846l10.763,-11.046l11.642,11.338l-23.529,24.154Z" style="fill-rule:nonzero;"/><path d="M135.425,445.933l13.242,-13.592l20.962,12.713c1.513,0.946 2.908,1.675 5.025,3.729l0.313,-0.325c-2.167,-2.321 -3.746,-4.492 -5.167,-6.829l-11.637,-19.037l9.812,-10.071l20.525,11.863c1.617,0.942 4.317,2.942 5.829,4.2l0.262,-0.271c-2.275,-2.321 -3.529,-4.171 -5,-6.454l-12.121,-19.087l13.292,-13.646l23.725,47.913l-11.129,11.425l-18.054,-10.938c-1.779,-1.096 -3.725,-2.467 -5.617,-4.096l-0.421,0.433c1.142,1.217 3.529,3.962 4.4,5.342l11.092,18.087l-10.867,11.154l-48.467,-22.512Z" style="fill-rule:nonzero;"/><path d="M230.421,420.679l-36.121,-35.183l12.767,-13.104l36.121,35.183l-12.767,13.104Z" style="fill-rule:nonzero;"/><path d="M250.254,400.321l-36.121,-35.187l23.742,-24.371l9.908,9.654l-10.971,11.267l3.358,3.271l9.967,-10.238l9.479,9.233l-9.971,10.238l3.467,3.375l11.292,-11.592l9.908,9.654l-24.058,24.696Z" style="fill-rule:nonzero;"/><path d="M277.737,322.921c-2.612,0.513 -7.033,1.8 -9.883,4.721c-0.683,0.708 -1.629,1.896 -1.775,3.125c-0.096,0.858 0.125,1.396 0.667,1.921c0.758,0.737 1.567,1.317 3.954,-0.267l4.983,-3.275c3.813,-2.508 6.962,-3.137 9.1,-3.167c4.438,-0.108 7.675,2.096 9.838,4.2c3.087,3.008 5.167,6.617 5.337,11.533c0.108,4.117 -1.2,10.442 -7.796,17.212c-5.379,5.525 -10.538,7.679 -14.792,9.55l-1.646,0.717l-6.329,-13.871l2.454,-0.354c2.35,-0.35 6.662,-1.533 9.775,-4.725c1.742,-1.787 2.046,-2.967 2.096,-3.446c0.092,-1.071 -0.4,-1.763 -0.942,-2.292c-0.325,-0.317 -0.921,-0.787 -1.667,-0.779c-0.854,0.013 -1.704,0.558 -3.292,1.646l-3.708,2.617c-2.383,1.692 -5.2,3.279 -9.208,3.275c-3.687,-0.004 -6.596,-1.354 -9.196,-3.888c-3.354,-3.271 -5.121,-7.208 -5.179,-11.908c-0.125,-5.508 1.988,-11.363 7.583,-17.1c2.792,-2.875 6.921,-6.133 13.85,-7.938l5.775,12.492Z" style="fill-rule:nonzero;"/><path d="M315.5,315.9l2.583,-2.654c0.738,-0.758 1.792,-1.946 2.096,-3.342c0.2,-1.071 -0.033,-2.458 -1.225,-3.621c-0.921,-0.892 -2.046,-1.254 -3.117,-1.133c-1.546,0.179 -2.867,1.429 -3.55,2.133l-2.746,2.812l5.958,5.804Zm-13.542,-13.192l2.008,-2.054c0.737,-0.758 1.625,-2.108 1.612,-3.283c-0.008,-0.637 -0.233,-1.6 -1.213,-2.55c-1.029,-1.004 -2.096,-1.096 -2.683,-1.033c-1.229,0.179 -2.446,1.317 -2.917,1.8l-2.004,2.062l5.196,5.058Zm-25.679,-1.371l15.354,-15.758c3.004,-3.088 8.025,-7.587 13.529,-7.825c1.658,-0.071 5.667,0.142 9.729,4.1c1.354,1.321 3.146,3.379 3.504,6.371c0.183,1.546 -0.058,3.525 -0.838,5.3l0.271,0.371c1.804,-1.092 3.671,-1.6 5.862,-1.679c3.475,-0.1 6.267,0.933 8.863,3.467c2.821,2.742 4.412,6.092 3.992,10.533c-0.521,5.404 -3.779,9.404 -6.263,11.95l-17.883,18.358l-36.121,-35.187Z" style="fill-rule:nonzero;"/><path d="M340.162,259.921l-0.475,0.488c1.462,1.533 2.496,2.962 3.479,4.554l5.192,8.537l5.117,-5.25l-8.567,-5.075c-1.725,-1.046 -3.288,-2.15 -4.746,-3.254Zm14.379,24.354l3.546,5.35l-13.508,13.867l-23.933,-47.696l14.142,-14.517l48.675,22.3l-13.558,13.917l-5.658,-3.187l-9.704,9.967Z" style="fill-rule:nonzero;"/><path d="M388.608,236.192l0.95,-0.975c1.479,-1.517 3.588,-3.792 3.754,-7.213c0.133,-2.304 -0.867,-4.963 -3.137,-7.179c-2.329,-2.267 -5.175,-3.246 -7.479,-3.163c-2.988,0.146 -5.267,1.942 -6.742,3.454l-1.371,1.408l14.025,13.667Zm-1.613,23.758l-36.121,-35.187l13.558,-13.917c2.954,-3.033 10.717,-10.462 21.033,-10.65c4.596,-0.058 11.137,1.35 17.796,7.842c3.738,3.638 7.871,9.042 7.975,16.842c0.108,4.329 -1.133,11.35 -7.517,17.904l-16.725,17.167Z" style="fill-rule:nonzero;"/><path d="M426.3,219.604l-36.121,-35.187l23.737,-24.371l9.913,9.654l-10.975,11.267l3.358,3.267l9.971,-10.233l9.479,9.233l-9.971,10.238l3.467,3.375l11.287,-11.592l9.908,9.654l-24.054,24.696Z" style="fill-rule:nonzero;"/><path d="M455.842,189.275l-36.121,-35.187l12.187,-12.508l21.825,4.9c3.483,0.758 5.737,1.263 9.712,2.813l0.367,-0.379c-2.8,-1.675 -7.008,-4.617 -9.663,-7.2l-11.479,-11.183l12.238,-12.563l36.121,35.188l-12.237,12.562l-23,-4.883c-2.092,-0.454 -4.937,-1.325 -7.137,-2.1l-0.371,0.379c2.321,1.521 5.829,4.096 7.45,5.675l12.296,11.979l-12.188,12.508Z" style="fill-rule:nonzero;"/><path d="M492.592,354.171c19.667,32.412 9.333,74.642 -23.079,94.308c-32.417,19.667 -74.65,9.325 -94.317,-23.088c-19.667,-32.413 -9.325,-74.638 23.088,-94.304c32.417,-19.667 74.642,-9.337 94.308,23.083Z" style="fill-rule:nonzero;"/><path d="M479.646,399.813c-7.179,4.058 -15.392,6.446 -23.25,6.762c-1.417,4.733 -5.921,18.183 -13.196,25.375c0.196,0.392 0.454,0.838 0.771,1.35c2.162,3.575 6.479,9.288 8.4,11.629c10.6,0.437 20.962,-5.317 23.904,-7.104c0.288,-0.171 0.508,-0.317 0.692,-0.429c5.183,-5.613 10.033,-15.104 12.05,-21.321c-0.7,-2.808 -1.967,-5.775 -3.8,-8.792c-1.504,-2.479 -3.375,-4.979 -5.571,-7.471Zm-78.887,45.792c6.254,3.746 13.075,6.396 20.15,7.879c-4.817,-1.796 -8.208,-4.054 -10.813,-6.05c-3.004,-0.325 -6.129,-0.938 -9.337,-1.829Zm51.75,1.075c-4.383,3.783 -9.917,6.521 -16.492,8.163c10.913,-0.292 21.904,-3.338 31.908,-9.408c2.367,-1.433 4.608,-2.996 6.717,-4.679c-4.846,2.6 -13.288,6.229 -22.133,5.925Zm-8.729,-108.867c2.158,1.679 4.592,4.675 6.933,8.529c2.833,4.667 5.071,9.887 6.05,14.046c3.975,1.088 17.108,6.192 22.083,10.071c3.758,-3.671 7.779,-9.05 9.542,-11.854c-0.621,-2.183 -1.075,-4.467 -1.554,-6.883c-0.004,-0.008 0,-0.025 0,-0.033c-8.308,-11.479 -19.825,-19.525 -32.55,-23.658c-4.075,2.787 -8.237,6.879 -10.504,9.783Zm36.217,33.963c1.742,4.983 1.792,21.467 0.708,26.617c4.887,5.475 8.221,11.05 9.729,16.221c1.008,-0.733 2.025,-1.483 2.946,-2.154c0.912,-0.663 1.721,-1.258 2.392,-1.75c5.158,-15.25 4.646,-32.325 -2.383,-47.746c-1.421,-0.792 -2.813,-1.679 -3.992,-2.692c-1.929,2.9 -5.704,7.912 -9.4,11.504Zm15.779,38.929l-0.004,0.004c-0.05,0.125 -0.079,0.237 -0.121,0.354c0.042,-0.117 0.079,-0.233 0.125,-0.358Zm-97.537,-48.333c2.987,-10.242 12.192,-21.021 14.787,-23.896c-1.025,-1.9 -2.888,-5.55 -3.767,-8.65c-2.983,1.25 -5.925,2.721 -8.779,4.454c-13.825,8.388 -23.4,21.117 -28.054,35.375c2.229,0.279 4.529,0.642 6.858,1.104c5.146,-5.412 13.875,-7.571 18.954,-8.387Zm-25.829,7.329c0.008,-0.017 0.012,-0.033 0.017,-0.046c-0.004,0.013 -0.008,0.029 -0.017,0.046Zm40.642,62.65c-3.254,-2.954 -6.279,-6.721 -8.996,-11.208c-3.425,-5.637 -5.496,-10.971 -6.346,-13.379c-6.204,-0.529 -15.479,-4.325 -18.771,-6.775c-2.779,7.363 -2.496,15.162 -1.942,19.729c0.513,0.962 1.058,1.917 1.629,2.858c4.504,7.417 10.254,13.612 16.808,18.471c0.704,0.258 1.404,0.513 2.096,0.75c4.042,1.354 7.967,2.287 11.696,2.775c-0.492,-3.313 0.763,-7.654 3.825,-13.221Zm29.283,-93.458c-8.625,-0.458 -17.963,-0.717 -27.846,0.563c-0.342,0.375 -0.9,1.004 -1.596,1.829c-1.154,1.35 -2.913,3.504 -4.779,6.104c-2.938,4.079 -6.737,10.117 -8.321,15.896c0.675,1.133 1.442,2.412 2.346,3.904c1.146,1.887 2.363,3.871 3.6,5.896c1.912,3.125 3.875,6.329 5.696,9.354c10.104,-3.117 24.15,-1.233 28.975,-0.442c3.413,-5.488 7.362,-10.938 11.163,-16.221c1.158,-1.6 2.35,-3.25 3.517,-4.883c-0.925,-4.017 -3.1,-9.092 -5.858,-13.642l-0.004,-0.008l0.304,-0.188l-0.012,-0.021l-0.308,0.188c-2.346,-3.867 -4.837,-6.887 -6.875,-8.329Zm-67.396,77.683c0.046,0.087 0.087,0.175 0.121,0.262c-0.038,-0.087 -0.075,-0.179 -0.117,-0.267c-0.004,0 -0.004,0.004 -0.004,0.004Zm24.404,-9.429c0.242,0.688 0.637,1.783 1.213,3.158c0.987,2.408 2.654,6.088 4.983,9.929c2.758,4.542 5.812,8.308 9.092,11.192c7.104,0.767 15.954,0.637 27.029,-0.412c6.742,-6.388 11.133,-18.742 12.713,-23.792c0.158,-0.508 0.304,-0.967 0.421,-1.375c-0.587,-0.996 -1.2,-2.025 -1.813,-3.038c-2.771,-4.567 -5.412,-8.483 -7.967,-12.271c-1.558,-2.304 -3.046,-4.483 -4.504,-6.754c-0.467,-0.079 -1.287,-0.217 -2.379,-0.367c-2.604,-0.375 -5.217,-0.629 -7.758,-0.792c-5.333,-0.325 -12.892,-0.317 -18.758,1.6c-4.283,6.717 -9.087,14.525 -12.354,22.683c0.021,0.071 0.054,0.154 0.083,0.237Zm-21.675,-7.692c-2.175,-5.562 -0.854,-21.263 0.838,-27.071c-2.258,-0.438 -4.463,-0.779 -6.608,-1.033c-4.333,14.579 -3.546,30.633 3.046,45.221c-0.171,-4.779 0.25,-11.15 2.725,-17.117Z" style="fill:#fff;fill-rule:nonzero;"/></g></svg>